<svg width="729" height="741" viewBox="0 0 729 741" fill="none" xmlns="http://www.w3.org/2000/svg">
    <path fill="#FFEDE1" d="M265 0h464v736H265z"/>
    <path fill="#0E60FF" d="m295.27 532.041 49.437 24.104-25.419 52.133-49.437-24.104z"/>
    <rect x="279.902" y="425.281" width="93" height="98" rx="46.5" transform="rotate(10.992 279.902 425.281)" fill="#F47458"/>
    <path d="M30.624 713.058c9.142 16.971 28.543 24.256 28.543 24.256s4.58-20.23-4.56-37.2c-9.143-16.971-28.544-24.256-28.544-24.256s-4.58 20.23 4.56 37.2z" fill="#201F30"/>
    <path d="M36.907 707.475c16.505 9.94 22.861 29.682 22.861 29.682s-20.403 3.628-36.907-6.312C6.356 720.906 0 701.163 0 701.163s20.403-3.627 36.907 6.312z" fill="#F47458"/>
    <path d="M406.939 214.726H303.963v1.472h102.976v-1.472z" fill="#FFCEAE"/>
    <path d="M378.989 215.83h-1.471v13.621h1.471V215.83zM334.121 215.83h-1.472v13.621h1.472V215.83zM459.164 285.408H356.188v1.472h102.976v-1.472z" fill="#FFCEAE"/>
    <path d="M385.609 272.155h-1.471v13.621h1.471v-13.621zM430.477 272.155h-1.471v13.621h1.471v-13.621zM595.975 318.54H492.999v1.473h102.976v-1.473z" fill="#FFCEAE"/>
    <path d="M522.42 305.288h-1.471v13.621h1.471v-13.621zM567.288 305.288h-1.471v13.621h1.471v-13.621zM585.678 660.172H482.701v1.472h102.977v-1.472z" fill="#FFCEAE"/>
    <path d="M512.123 646.919h-1.471v13.621h1.471v-13.621zM556.991 646.919h-1.471v13.621h1.471v-13.621zM409.882 423.828H306.905v1.472h102.977v-1.472z" fill="#FFCEAE"/>
    <path d="M336.328 410.575h-1.472v13.621h1.472v-13.621zM381.196 410.575h-1.471v13.621h1.471v-13.621zM442.246 601.27H339.27v1.472h102.976v-1.472z" fill="#FFCEAE"/>
    <path d="M368.692 588.017h-1.471v13.621h1.471v-13.621zM413.56 588.017h-1.471v13.621h1.471v-13.621zM607.009 547.521H504.032v1.473h102.977v-1.473z" fill="#FFCEAE"/>
    <path d="M533.454 534.269h-1.472v13.621h1.472v-13.621zM578.322 534.269h-1.471v13.621h1.471v-13.621z" fill="#FFCEAE"/>
    <path d="m283.699 711.546-170.971-33.21.239-1.231 169.741 32.971 11.599-59.715-155.368-30.179-4.49-17.206 1.212-.317 4.291 16.441 155.825 30.268-12.078 62.178z" fill="#201F30"/>
    <path d="M129.624 712.921c7.133 1.385 14.039-3.279 15.426-10.419 1.387-7.14-3.271-14.051-10.404-15.437-7.133-1.385-14.039 3.279-15.426 10.419-1.387 7.14 3.271 14.051 10.404 15.437zM256.93 737.649c7.133 1.386 14.039-3.279 15.426-10.419 1.387-7.14-3.271-14.051-10.404-15.437-7.133-1.385-14.039 3.28-15.426 10.42-1.387 7.139 3.271 14.051 10.404 15.436zM461.28 487.308c4.415.858 8.691-2.03 9.55-6.45.858-4.42-2.026-8.698-6.441-9.556-4.416-.858-8.691 2.03-9.55 6.45-.858 4.42 2.025 8.698 6.441 9.556z" fill="#3F3D56"/>
    <path d="m317.77 633.836-192.173-37.328-15.155-144.128 276.578 53.723-.408.752-68.842 126.981zm-191.024-38.382 190.361 36.976 67.996-125.421-273.237-53.074 14.88 141.519z" fill="#201F30"/>
    <path d="m253.655 593.722-104.904-1.772-21.431-75.373 150.978 2.551-.144.439-24.499 74.155z" fill="#00FFC2"/>
    <path d="m392.826 494.618-1.128-.547 14.065-29.046 47.214 9.171-.239 1.232-46.268-8.987-13.644 28.177zM365.187 544.665l-249.319-48.428-.239 1.231 249.319 48.428.239-1.231zM342.098 587.252 120.921 544.29l-.239 1.232 221.177 42.962.239-1.232z" fill="#201F30"/>
    <path d="m249.223 479.976-1.23-.239-26.188 134.82 1.23.239 26.188-134.82zM304.3 490.634l-35.017 133.102 1.212.319 35.017-133.102-1.212-.319zM192.957 469.006l-1.244-.159-17.409 136.525 1.243.158 17.41-136.524z" fill="#201F30"/>
    <path d="M437.952 233.845s10.753 30.634 4.136 35.347c-6.617 4.712 22.332 43.201 22.332 43.201l34.739-9.426-19.024-32.204s-2.481-32.205-2.481-36.918c0-4.713-39.702 0-39.702 0z" fill="#FFD6BA"/>
    <path opacity=".1" d="M437.952 233.845s10.753 30.634 4.136 35.347c-6.617 4.712 22.332 43.201 22.332 43.201l34.739-9.426-19.024-32.204s-2.481-32.205-2.481-36.918c0-4.713-39.702 0-39.702 0z" fill="#000"/>
    <path d="M419.904 452.209s-3.139 39.273 0 59.696c3.139 20.422 7.847 76.977 7.847 76.977s0 106.825 17.263 108.396c17.264 1.571 29.819 3.142 31.388-3.142 1.57-6.284-7.847-9.426-3.139-12.568 4.709-3.142 6.278-14.138 0-26.706-6.277-12.568 0-139.815 0-139.815l29.819 80.119s3.139 65.98 6.278 75.405c3.138 9.426-3.139 26.707 7.847 28.278 10.985 1.571 23.541-7.855 29.818-10.997 6.278-3.142-9.416-3.142-6.277-4.713 3.139-1.571 12.555-6.284 9.416-7.855-3.139-1.571-6.278-76.977-6.278-76.977s-8.631-161.023-19.617-167.306c-10.986-6.284-18.048 4.539-18.048 4.539l-86.317 16.669z" fill="#201F30"/>
    <path d="M448.153 690.994v12.567s-14.125 34.163 0 34.163c14.124 0 25.11 3.54 25.11-1.173v-42.415l-25.11-3.142zM536.683 689.752l2.061 12.397s19.538 31.383 5.605 33.7c-13.933 2.317-24.19 7.611-24.963 2.962l-6.958-41.841 24.255-7.218z" fill="#201F30"/>
    <path d="M446.8 255.135c15.038 4.157 30.602-4.675 34.763-19.728 4.161-15.052-4.656-30.625-19.693-34.782-15.038-4.157-30.602 4.675-34.763 19.728-4.161 15.052 4.656 30.625 19.693 34.782z" fill="#FFD6BA"/>
    <path d="M451.292 280.974s7.847 23.564 20.402 18.852l12.556-4.713 21.971 150.811s-17.263 25.136-42.374 9.426c-25.11-15.709-12.555-174.376-12.555-174.376z" fill="#fff"/>
    <path d="m473.264 276.261 7.062-14.924s41.589 19.637 47.867 25.921c6.277 6.284 6.277 15.709 6.277 15.709l-10.985 39.274s3.138 86.403 3.138 89.545c0 3.142 10.986 20.422 3.139 14.138-7.847-6.284-9.416-12.567-15.694-3.142-6.277 9.426-20.402 20.423-20.402 20.423l-20.402-186.944z" fill="#F47458"/>
    <path d="m528.193 389.37-4.709 43.987s-28.249 25.135-21.971 26.706c6.277 1.571 9.416-4.713 9.416-4.713s10.986 10.997 17.264 4.713c6.277-6.284 21.971-65.98 21.971-65.98l-21.971-4.713z" fill="#FFD6BA"/>
    <path d="M465.564 189.522c-5.976-1.885-12.406-3.778-18.396-1.929a26.741 26.741 0 0 0-7.723 4.275c-6.691 4.902-13.155 11.61-13.466 19.901l2.37-.243a14.565 14.565 0 0 1-3.011 5.632c.543-.793 1.16.902.645 1.714l-4.494 7.085c4.265-.351 8.287 3.858 7.746 8.107 2.754-8.91 6.533-18.956 15.269-22.204 4.406-1.638 9.277-1.164 13.947-.647 4.308.477 8.807 1.04 12.383 3.491 3.575 2.452 5.821 7.427 3.796 11.264 1.996-.125 3.682 1.709 4.111 3.664.429 1.954-.08 3.978-.586 5.914 1.562 1.911 4.526-.206 5.938-2.232 3.314-4.755 6.516-9.907 7.035-15.68.518-5.774-2.504-12.264-8.081-13.825a4.024 4.024 0 0 0 1.763-2.453l-4.493-1.661a5.276 5.276 0 0 0 3.482-.763c-2.409 1.523-15.277-8.478-18.235-9.41z" fill="#201F30"/>
    <path d="M459.139 271.548s-12.776-12.532-17.374-11.764c-4.597.768-10.875 11.764-10.875 11.764s-37.666 12.568-36.096 25.136c1.569 12.567 18.833 73.834 18.833 73.834s14.124 73.835 1.569 81.69c-12.555 7.855 59.637 28.277 61.207 18.852 1.569-9.426 4.708-103.683 0-117.822-4.709-14.139-17.264-81.69-17.264-81.69zM514.068 296.684h19.406s13.552 59.696 15.121 65.98c1.57 6.284 4.708 36.132 3.139 36.132-1.569 0-32.957-6.284-32.957-1.571l-4.709-100.541z" fill="#F47458"/>
    <path d="M513.411 454.511h-74.29c-7.25-33.383-7.856-65.636 0-96.452h74.29c-11.989 30.261-12.738 62.294 0 96.452z" fill="#FFCEAE"/>
    <path d="m408.918 408.509 21.972 9.425s42.373 6.284 42.373-10.996c0-17.281-42.373-7.855-42.373-7.855l-14.126-4.521-7.846 13.947z" fill="#FFD6BA"/>
    <path d="m413.626 287.258-18.833 4.713-14.125 83.26s-4.708 21.994 3.139 23.565c7.847 1.571 29.819 14.138 29.819 14.138s3.139-23.564 9.416-23.564l-15.694-12.568 9.417-54.983-3.139-34.561z" fill="#F47458"/>
    <path d="M147.292 448.125H44.315v1.472h102.977v-1.472z" fill="#FFCEAE"/>
    <path d="M73.738 434.872h-1.471v13.621h1.47v-13.621zM118.606 434.872h-1.471v13.621h1.471v-13.621zM183.334 230.188H80.357v1.472h102.977v-1.472z" fill="#FFCEAE"/>
    <path d="M155.383 231.292h-1.471v13.621h1.471v-13.621zM110.515 231.292h-1.471v13.621h1.471v-13.621zM307.046 375.233H204.069v1.473h102.977v-1.473z" fill="#FFCEAE"/>
    <path d="M279.095 376.338h-1.471v13.621h1.471v-13.621zM234.227 376.338h-1.471v13.621h1.471v-13.621zM111.986 374.497H9.01v1.473h102.976v-1.473z" fill="#FFCEAE"/>
    <path d="M84.036 375.602h-1.472v13.621h1.472v-13.621zM39.166 375.602h-1.47v13.621h1.47v-13.621zM235.558 300.87H132.581v1.472h102.977v-1.472z" fill="#FFCEAE"/>
    <path d="M162.003 287.617h-1.471v13.621h1.471v-13.621zM206.871 287.617H205.4v13.621h1.471v-13.621z" fill="#FFCEAE"/>
</svg>
